<mxfile host="app.diagrams.net" modified="2021-07-31T17:55:31.347Z" agent="5.0 (Windows NT 10.0; Win64; x64) AppleWebKit/537.36 (KHTML, like Gecko) Chrome/92.0.4515.107 Safari/537.36" etag="uDKOvQ5t9t2RqdKM5SXW" version="14.9.2" type="github">
  <diagram id="_Cm8ipx7nPOmZvch6AL7" name="Page-1">
    <mxGraphModel dx="1344" dy="521" grid="1" gridSize="10" guides="1" tooltips="1" connect="1" arrows="1" fold="1" page="1" pageScale="1" pageWidth="850" pageHeight="1100" math="0" shadow="0">
      <root>
        <mxCell id="0" />
        <mxCell id="1" parent="0" />
        <mxCell id="5pLtMOVgpSPl1mk9mMqf-1" value="Administrator" style="swimlane;fontStyle=1;align=center;verticalAlign=top;childLayout=stackLayout;horizontal=1;startSize=26;horizontalStack=0;resizeParent=1;resizeParentMax=0;resizeLast=0;collapsible=1;marginBottom=0;" vertex="1" parent="1">
          <mxGeometry x="70" y="70" width="170" height="150" as="geometry" />
        </mxCell>
        <mxCell id="5pLtMOVgpSPl1mk9mMqf-2" value="+ name : String&#xa;+ password : String&#xa;+ id : int" style="text;strokeColor=none;fillColor=none;align=left;verticalAlign=top;spacingLeft=4;spacingRight=4;overflow=hidden;rotatable=0;points=[[0,0.5],[1,0.5]];portConstraint=eastwest;" vertex="1" parent="5pLtMOVgpSPl1mk9mMqf-1">
          <mxGeometry y="26" width="170" height="54" as="geometry" />
        </mxCell>
        <mxCell id="5pLtMOVgpSPl1mk9mMqf-3" value="" style="line;strokeWidth=1;fillColor=none;align=left;verticalAlign=middle;spacingTop=-1;spacingLeft=3;spacingRight=3;rotatable=0;labelPosition=right;points=[];portConstraint=eastwest;" vertex="1" parent="5pLtMOVgpSPl1mk9mMqf-1">
          <mxGeometry y="80" width="170" height="8" as="geometry" />
        </mxCell>
        <mxCell id="5pLtMOVgpSPl1mk9mMqf-4" value="+ manageLecture(): boolean&#xa;+ manageStudent(): boolean&#xa;+ manageCalender(): boolean" style="text;strokeColor=none;fillColor=none;align=left;verticalAlign=top;spacingLeft=4;spacingRight=4;overflow=hidden;rotatable=0;points=[[0,0.5],[1,0.5]];portConstraint=eastwest;" vertex="1" parent="5pLtMOVgpSPl1mk9mMqf-1">
          <mxGeometry y="88" width="170" height="62" as="geometry" />
        </mxCell>
        <mxCell id="5pLtMOVgpSPl1mk9mMqf-5" value="Student" style="swimlane;fontStyle=1;align=center;verticalAlign=top;childLayout=stackLayout;horizontal=1;startSize=26;horizontalStack=0;resizeParent=1;resizeParentMax=0;resizeLast=0;collapsible=1;marginBottom=0;" vertex="1" parent="1">
          <mxGeometry x="615" y="300" width="220" height="180" as="geometry" />
        </mxCell>
        <mxCell id="5pLtMOVgpSPl1mk9mMqf-6" value="+ Studentname : String&#xa;+Studentpassword : String&#xa;+StudentId : int&#xa;+StudentEmail : String&#xa;+Photourl : String" style="text;strokeColor=none;fillColor=none;align=left;verticalAlign=top;spacingLeft=4;spacingRight=4;overflow=hidden;rotatable=0;points=[[0,0.5],[1,0.5]];portConstraint=eastwest;" vertex="1" parent="5pLtMOVgpSPl1mk9mMqf-5">
          <mxGeometry y="26" width="220" height="84" as="geometry" />
        </mxCell>
        <mxCell id="5pLtMOVgpSPl1mk9mMqf-7" value="" style="line;strokeWidth=1;fillColor=none;align=left;verticalAlign=middle;spacingTop=-1;spacingLeft=3;spacingRight=3;rotatable=0;labelPosition=right;points=[];portConstraint=eastwest;" vertex="1" parent="5pLtMOVgpSPl1mk9mMqf-5">
          <mxGeometry y="110" width="220" height="8" as="geometry" />
        </mxCell>
        <mxCell id="5pLtMOVgpSPl1mk9mMqf-8" value="+ modifyStudentInfo(): boolean&#xa;+ addPost(): boolean&#xa;+ addSubmission(): boolean" style="text;strokeColor=none;fillColor=none;align=left;verticalAlign=top;spacingLeft=4;spacingRight=4;overflow=hidden;rotatable=0;points=[[0,0.5],[1,0.5]];portConstraint=eastwest;" vertex="1" parent="5pLtMOVgpSPl1mk9mMqf-5">
          <mxGeometry y="118" width="220" height="62" as="geometry" />
        </mxCell>
        <mxCell id="5pLtMOVgpSPl1mk9mMqf-9" value="CourseCalender" style="swimlane;fontStyle=1;align=center;verticalAlign=top;childLayout=stackLayout;horizontal=1;startSize=26;horizontalStack=0;resizeParent=1;resizeParentMax=0;resizeLast=0;collapsible=1;marginBottom=0;" vertex="1" parent="1">
          <mxGeometry x="615" y="70" width="220" height="160" as="geometry" />
        </mxCell>
        <mxCell id="5pLtMOVgpSPl1mk9mMqf-10" value="+ CalenderId : int&#xa;+ CourseId : int&#xa;+ events : &lt;Map&gt;&#xa;" style="text;strokeColor=none;fillColor=none;align=left;verticalAlign=top;spacingLeft=4;spacingRight=4;overflow=hidden;rotatable=0;points=[[0,0.5],[1,0.5]];portConstraint=eastwest;" vertex="1" parent="5pLtMOVgpSPl1mk9mMqf-9">
          <mxGeometry y="26" width="220" height="54" as="geometry" />
        </mxCell>
        <mxCell id="5pLtMOVgpSPl1mk9mMqf-11" value="" style="line;strokeWidth=1;fillColor=none;align=left;verticalAlign=middle;spacingTop=-1;spacingLeft=3;spacingRight=3;rotatable=0;labelPosition=right;points=[];portConstraint=eastwest;" vertex="1" parent="5pLtMOVgpSPl1mk9mMqf-9">
          <mxGeometry y="80" width="220" height="8" as="geometry" />
        </mxCell>
        <mxCell id="5pLtMOVgpSPl1mk9mMqf-12" value="+ viewCourseCalender(): boolean&#xa;+ modifyCourseCalender(): boolean&#xa;+ deleteCourseCalender(): boolean&#xa;+ createCourseCalender(): boolean" style="text;strokeColor=none;fillColor=none;align=left;verticalAlign=top;spacingLeft=4;spacingRight=4;overflow=hidden;rotatable=0;points=[[0,0.5],[1,0.5]];portConstraint=eastwest;" vertex="1" parent="5pLtMOVgpSPl1mk9mMqf-9">
          <mxGeometry y="88" width="220" height="72" as="geometry" />
        </mxCell>
        <mxCell id="5pLtMOVgpSPl1mk9mMqf-13" value="Course" style="swimlane;fontStyle=1;align=center;verticalAlign=top;childLayout=stackLayout;horizontal=1;startSize=26;horizontalStack=0;resizeParent=1;resizeParentMax=0;resizeLast=0;collapsible=1;marginBottom=0;" vertex="1" parent="1">
          <mxGeometry x="350" y="340" width="170" height="150" as="geometry" />
        </mxCell>
        <mxCell id="5pLtMOVgpSPl1mk9mMqf-14" value="+ coursename : String&#xa;+ courseid : int" style="text;strokeColor=none;fillColor=none;align=left;verticalAlign=top;spacingLeft=4;spacingRight=4;overflow=hidden;rotatable=0;points=[[0,0.5],[1,0.5]];portConstraint=eastwest;" vertex="1" parent="5pLtMOVgpSPl1mk9mMqf-13">
          <mxGeometry y="26" width="170" height="44" as="geometry" />
        </mxCell>
        <mxCell id="5pLtMOVgpSPl1mk9mMqf-15" value="" style="line;strokeWidth=1;fillColor=none;align=left;verticalAlign=middle;spacingTop=-1;spacingLeft=3;spacingRight=3;rotatable=0;labelPosition=right;points=[];portConstraint=eastwest;" vertex="1" parent="5pLtMOVgpSPl1mk9mMqf-13">
          <mxGeometry y="70" width="170" height="8" as="geometry" />
        </mxCell>
        <mxCell id="5pLtMOVgpSPl1mk9mMqf-16" value="+ viewCourse(): boolean&#xa;+ modifyCourse(): boolean&#xa;+ deleteCourse(): boolean&#xa;+ createCourse(): boolean" style="text;strokeColor=none;fillColor=none;align=left;verticalAlign=top;spacingLeft=4;spacingRight=4;overflow=hidden;rotatable=0;points=[[0,0.5],[1,0.5]];portConstraint=eastwest;" vertex="1" parent="5pLtMOVgpSPl1mk9mMqf-13">
          <mxGeometry y="78" width="170" height="72" as="geometry" />
        </mxCell>
        <mxCell id="5pLtMOVgpSPl1mk9mMqf-17" value="Topic" style="swimlane;fontStyle=1;align=center;verticalAlign=top;childLayout=stackLayout;horizontal=1;startSize=26;horizontalStack=0;resizeParent=1;resizeParentMax=0;resizeLast=0;collapsible=1;marginBottom=0;" vertex="1" parent="1">
          <mxGeometry x="355" y="540" width="170" height="150" as="geometry" />
        </mxCell>
        <mxCell id="5pLtMOVgpSPl1mk9mMqf-18" value="+ topicid : int&#xa;+ topicname : String&#xa;+ courseid : int" style="text;strokeColor=none;fillColor=none;align=left;verticalAlign=top;spacingLeft=4;spacingRight=4;overflow=hidden;rotatable=0;points=[[0,0.5],[1,0.5]];portConstraint=eastwest;" vertex="1" parent="5pLtMOVgpSPl1mk9mMqf-17">
          <mxGeometry y="26" width="170" height="44" as="geometry" />
        </mxCell>
        <mxCell id="5pLtMOVgpSPl1mk9mMqf-19" value="" style="line;strokeWidth=1;fillColor=none;align=left;verticalAlign=middle;spacingTop=-1;spacingLeft=3;spacingRight=3;rotatable=0;labelPosition=right;points=[];portConstraint=eastwest;" vertex="1" parent="5pLtMOVgpSPl1mk9mMqf-17">
          <mxGeometry y="70" width="170" height="8" as="geometry" />
        </mxCell>
        <mxCell id="5pLtMOVgpSPl1mk9mMqf-20" value="+ viewTopic(): boolean&#xa;+ modifyTopic(): boolean&#xa;+ deleteTopic(): boolean&#xa;+ createTopic(): boolean" style="text;strokeColor=none;fillColor=none;align=left;verticalAlign=top;spacingLeft=4;spacingRight=4;overflow=hidden;rotatable=0;points=[[0,0.5],[1,0.5]];portConstraint=eastwest;" vertex="1" parent="5pLtMOVgpSPl1mk9mMqf-17">
          <mxGeometry y="78" width="170" height="72" as="geometry" />
        </mxCell>
        <mxCell id="5pLtMOVgpSPl1mk9mMqf-21" value="Lecture" style="swimlane;fontStyle=1;align=center;verticalAlign=top;childLayout=stackLayout;horizontal=1;startSize=26;horizontalStack=0;resizeParent=1;resizeParentMax=0;resizeLast=0;collapsible=1;marginBottom=0;" vertex="1" parent="1">
          <mxGeometry x="50" y="500" width="220" height="180" as="geometry" />
        </mxCell>
        <mxCell id="5pLtMOVgpSPl1mk9mMqf-22" value="+ Lecturename : String&#xa;+Lecturepassword : String&#xa;+LectureId : int&#xa;+LectureEmail : String&#xa;+Photourl : String" style="text;strokeColor=none;fillColor=none;align=left;verticalAlign=top;spacingLeft=4;spacingRight=4;overflow=hidden;rotatable=0;points=[[0,0.5],[1,0.5]];portConstraint=eastwest;" vertex="1" parent="5pLtMOVgpSPl1mk9mMqf-21">
          <mxGeometry y="26" width="220" height="84" as="geometry" />
        </mxCell>
        <mxCell id="5pLtMOVgpSPl1mk9mMqf-23" value="" style="line;strokeWidth=1;fillColor=none;align=left;verticalAlign=middle;spacingTop=-1;spacingLeft=3;spacingRight=3;rotatable=0;labelPosition=right;points=[];portConstraint=eastwest;" vertex="1" parent="5pLtMOVgpSPl1mk9mMqf-21">
          <mxGeometry y="110" width="220" height="8" as="geometry" />
        </mxCell>
        <mxCell id="5pLtMOVgpSPl1mk9mMqf-24" value="+ modifyLectureInfo(): boolean&#xa;+ addPost(): boolean&#xa;+ addContentToCourse(): boolean" style="text;strokeColor=none;fillColor=none;align=left;verticalAlign=top;spacingLeft=4;spacingRight=4;overflow=hidden;rotatable=0;points=[[0,0.5],[1,0.5]];portConstraint=eastwest;" vertex="1" parent="5pLtMOVgpSPl1mk9mMqf-21">
          <mxGeometry y="118" width="220" height="62" as="geometry" />
        </mxCell>
        <mxCell id="5pLtMOVgpSPl1mk9mMqf-25" value="Content" style="swimlane;fontStyle=1;align=center;verticalAlign=top;childLayout=stackLayout;horizontal=1;startSize=26;horizontalStack=0;resizeParent=1;resizeParentMax=0;resizeLast=0;collapsible=1;marginBottom=0;" vertex="1" parent="1">
          <mxGeometry x="350" y="750" width="170" height="160" as="geometry" />
        </mxCell>
        <mxCell id="5pLtMOVgpSPl1mk9mMqf-26" value="+ contentid : int&#xa;+ topicid : int&#xa;+ contenturl : String" style="text;strokeColor=none;fillColor=none;align=left;verticalAlign=top;spacingLeft=4;spacingRight=4;overflow=hidden;rotatable=0;points=[[0,0.5],[1,0.5]];portConstraint=eastwest;" vertex="1" parent="5pLtMOVgpSPl1mk9mMqf-25">
          <mxGeometry y="26" width="170" height="54" as="geometry" />
        </mxCell>
        <mxCell id="5pLtMOVgpSPl1mk9mMqf-27" value="" style="line;strokeWidth=1;fillColor=none;align=left;verticalAlign=middle;spacingTop=-1;spacingLeft=3;spacingRight=3;rotatable=0;labelPosition=right;points=[];portConstraint=eastwest;" vertex="1" parent="5pLtMOVgpSPl1mk9mMqf-25">
          <mxGeometry y="80" width="170" height="8" as="geometry" />
        </mxCell>
        <mxCell id="5pLtMOVgpSPl1mk9mMqf-28" value="+ viewContent(): boolean&#xa;+ modifyContent(): boolean&#xa;+ deleteContent(): boolean&#xa;+ createContent(): boolean" style="text;strokeColor=none;fillColor=none;align=left;verticalAlign=top;spacingLeft=4;spacingRight=4;overflow=hidden;rotatable=0;points=[[0,0.5],[1,0.5]];portConstraint=eastwest;" vertex="1" parent="5pLtMOVgpSPl1mk9mMqf-25">
          <mxGeometry y="88" width="170" height="72" as="geometry" />
        </mxCell>
        <mxCell id="5pLtMOVgpSPl1mk9mMqf-30" value="" style="endArrow=none;html=1;exitX=1;exitY=0.5;exitDx=0;exitDy=0;entryX=0;entryY=0.5;entryDx=0;entryDy=0;" edge="1" parent="1" source="5pLtMOVgpSPl1mk9mMqf-2" target="5pLtMOVgpSPl1mk9mMqf-6">
          <mxGeometry width="50" height="50" relative="1" as="geometry">
            <mxPoint x="400" y="320" as="sourcePoint" />
            <mxPoint x="450" y="270" as="targetPoint" />
          </mxGeometry>
        </mxCell>
        <mxCell id="5pLtMOVgpSPl1mk9mMqf-31" value="Manage" style="edgeLabel;html=1;align=center;verticalAlign=middle;resizable=0;points=[];" vertex="1" connectable="0" parent="5pLtMOVgpSPl1mk9mMqf-30">
          <mxGeometry x="-0.2342" y="2" relative="1" as="geometry">
            <mxPoint x="46" y="4" as="offset" />
          </mxGeometry>
        </mxCell>
        <mxCell id="5pLtMOVgpSPl1mk9mMqf-32" value="" style="endArrow=none;html=1;entryX=1;entryY=0.5;entryDx=0;entryDy=0;exitX=0;exitY=0.5;exitDx=0;exitDy=0;" edge="1" parent="1" source="5pLtMOVgpSPl1mk9mMqf-10" target="5pLtMOVgpSPl1mk9mMqf-2">
          <mxGeometry width="50" height="50" relative="1" as="geometry">
            <mxPoint x="400" y="320" as="sourcePoint" />
            <mxPoint x="450" y="270" as="targetPoint" />
          </mxGeometry>
        </mxCell>
        <mxCell id="5pLtMOVgpSPl1mk9mMqf-33" value="Prepare" style="text;html=1;align=center;verticalAlign=middle;resizable=0;points=[];autosize=1;strokeColor=none;" vertex="1" parent="1">
          <mxGeometry x="410" y="100" width="60" height="20" as="geometry" />
        </mxCell>
        <mxCell id="5pLtMOVgpSPl1mk9mMqf-34" value="" style="endArrow=none;html=1;entryX=0.541;entryY=0.984;entryDx=0;entryDy=0;entryPerimeter=0;exitX=0.5;exitY=0;exitDx=0;exitDy=0;" edge="1" parent="1" source="5pLtMOVgpSPl1mk9mMqf-21" target="5pLtMOVgpSPl1mk9mMqf-4">
          <mxGeometry width="50" height="50" relative="1" as="geometry">
            <mxPoint x="400" y="420" as="sourcePoint" />
            <mxPoint x="450" y="370" as="targetPoint" />
          </mxGeometry>
        </mxCell>
        <mxCell id="5pLtMOVgpSPl1mk9mMqf-35" value="Manage" style="text;html=1;align=center;verticalAlign=middle;resizable=0;points=[];autosize=1;strokeColor=none;" vertex="1" parent="1">
          <mxGeometry x="110" y="370" width="60" height="20" as="geometry" />
        </mxCell>
        <mxCell id="5pLtMOVgpSPl1mk9mMqf-36" value="" style="endArrow=none;html=1;entryX=0.5;entryY=0;entryDx=0;entryDy=0;exitX=0.487;exitY=0.997;exitDx=0;exitDy=0;exitPerimeter=0;" edge="1" parent="1" source="5pLtMOVgpSPl1mk9mMqf-12" target="5pLtMOVgpSPl1mk9mMqf-5">
          <mxGeometry width="50" height="50" relative="1" as="geometry">
            <mxPoint x="400" y="320" as="sourcePoint" />
            <mxPoint x="450" y="270" as="targetPoint" />
          </mxGeometry>
        </mxCell>
        <mxCell id="5pLtMOVgpSPl1mk9mMqf-38" value="" style="endArrow=none;html=1;entryX=0;entryY=0.5;entryDx=0;entryDy=0;exitX=1;exitY=0.5;exitDx=0;exitDy=0;" edge="1" parent="1" source="5pLtMOVgpSPl1mk9mMqf-14" target="5pLtMOVgpSPl1mk9mMqf-6">
          <mxGeometry width="50" height="50" relative="1" as="geometry">
            <mxPoint x="400" y="520" as="sourcePoint" />
            <mxPoint x="450" y="470" as="targetPoint" />
          </mxGeometry>
        </mxCell>
        <mxCell id="5pLtMOVgpSPl1mk9mMqf-39" value="View" style="text;html=1;align=center;verticalAlign=middle;resizable=0;points=[];autosize=1;strokeColor=none;" vertex="1" parent="1">
          <mxGeometry x="540" y="360" width="40" height="20" as="geometry" />
        </mxCell>
        <mxCell id="5pLtMOVgpSPl1mk9mMqf-40" value="" style="endArrow=none;html=1;entryX=0.52;entryY=1.014;entryDx=0;entryDy=0;entryPerimeter=0;exitX=0.5;exitY=0;exitDx=0;exitDy=0;" edge="1" parent="1" source="5pLtMOVgpSPl1mk9mMqf-17" target="5pLtMOVgpSPl1mk9mMqf-16">
          <mxGeometry width="50" height="50" relative="1" as="geometry">
            <mxPoint x="400" y="720" as="sourcePoint" />
            <mxPoint x="450" y="670" as="targetPoint" />
          </mxGeometry>
        </mxCell>
        <mxCell id="5pLtMOVgpSPl1mk9mMqf-41" value="Contain" style="text;html=1;align=center;verticalAlign=middle;resizable=0;points=[];autosize=1;strokeColor=none;" vertex="1" parent="1">
          <mxGeometry x="440" y="510" width="60" height="20" as="geometry" />
        </mxCell>
        <mxCell id="5pLtMOVgpSPl1mk9mMqf-42" value="" style="endArrow=none;html=1;entryX=0.478;entryY=1.036;entryDx=0;entryDy=0;exitX=0.5;exitY=0;exitDx=0;exitDy=0;entryPerimeter=0;" edge="1" parent="1" source="5pLtMOVgpSPl1mk9mMqf-25" target="5pLtMOVgpSPl1mk9mMqf-20">
          <mxGeometry width="50" height="50" relative="1" as="geometry">
            <mxPoint x="400" y="720" as="sourcePoint" />
            <mxPoint x="450" y="670" as="targetPoint" />
          </mxGeometry>
        </mxCell>
        <mxCell id="5pLtMOVgpSPl1mk9mMqf-43" value="Contain" style="text;html=1;align=center;verticalAlign=middle;resizable=0;points=[];autosize=1;strokeColor=none;" vertex="1" parent="1">
          <mxGeometry x="440" y="700" width="60" height="20" as="geometry" />
        </mxCell>
        <mxCell id="5pLtMOVgpSPl1mk9mMqf-44" value="" style="endArrow=none;html=1;entryX=0;entryY=0.5;entryDx=0;entryDy=0;exitX=-0.02;exitY=0.89;exitDx=0;exitDy=0;exitPerimeter=0;" edge="1" parent="1" source="5pLtMOVgpSPl1mk9mMqf-49" target="5pLtMOVgpSPl1mk9mMqf-14">
          <mxGeometry width="50" height="50" relative="1" as="geometry">
            <mxPoint x="400" y="620" as="sourcePoint" />
            <mxPoint x="450" y="570" as="targetPoint" />
          </mxGeometry>
        </mxCell>
        <mxCell id="5pLtMOVgpSPl1mk9mMqf-45" value="" style="endArrow=none;html=1;exitX=-0.01;exitY=0.77;exitDx=0;exitDy=0;exitPerimeter=0;entryX=0;entryY=0.5;entryDx=0;entryDy=0;" edge="1" parent="1" source="5pLtMOVgpSPl1mk9mMqf-49" target="5pLtMOVgpSPl1mk9mMqf-26">
          <mxGeometry width="50" height="50" relative="1" as="geometry">
            <mxPoint x="400" y="620" as="sourcePoint" />
            <mxPoint x="450" y="570" as="targetPoint" />
          </mxGeometry>
        </mxCell>
        <mxCell id="5pLtMOVgpSPl1mk9mMqf-46" value="" style="endArrow=none;html=1;exitX=1;exitY=0.5;exitDx=0;exitDy=0;entryX=0;entryY=0.5;entryDx=0;entryDy=0;" edge="1" parent="1" source="5pLtMOVgpSPl1mk9mMqf-22" target="5pLtMOVgpSPl1mk9mMqf-18">
          <mxGeometry width="50" height="50" relative="1" as="geometry">
            <mxPoint x="400" y="620" as="sourcePoint" />
            <mxPoint x="450" y="570" as="targetPoint" />
          </mxGeometry>
        </mxCell>
        <mxCell id="5pLtMOVgpSPl1mk9mMqf-48" value="Add/Modify" style="text;html=1;align=center;verticalAlign=middle;resizable=0;points=[];autosize=1;strokeColor=none;" vertex="1" parent="1">
          <mxGeometry x="240" y="440" width="80" height="20" as="geometry" />
        </mxCell>
        <mxCell id="5pLtMOVgpSPl1mk9mMqf-49" value="Add/Modify" style="text;html=1;align=center;verticalAlign=middle;resizable=0;points=[];autosize=1;strokeColor=none;" vertex="1" parent="1">
          <mxGeometry x="270" y="550" width="80" height="20" as="geometry" />
        </mxCell>
        <mxCell id="5pLtMOVgpSPl1mk9mMqf-50" value="Add/Modify" style="text;html=1;align=center;verticalAlign=middle;resizable=0;points=[];autosize=1;strokeColor=none;" vertex="1" parent="1">
          <mxGeometry x="240" y="710" width="80" height="20" as="geometry" />
        </mxCell>
        <mxCell id="5pLtMOVgpSPl1mk9mMqf-52" value="" style="endArrow=none;html=1;entryX=0;entryY=0.5;entryDx=0;entryDy=0;exitX=1;exitY=0;exitDx=0;exitDy=0;" edge="1" parent="1" source="5pLtMOVgpSPl1mk9mMqf-17" target="5pLtMOVgpSPl1mk9mMqf-6">
          <mxGeometry width="50" height="50" relative="1" as="geometry">
            <mxPoint x="400" y="620" as="sourcePoint" />
            <mxPoint x="450" y="570" as="targetPoint" />
          </mxGeometry>
        </mxCell>
        <mxCell id="5pLtMOVgpSPl1mk9mMqf-53" value="" style="endArrow=none;html=1;entryX=0;entryY=0.5;entryDx=0;entryDy=0;exitX=1;exitY=0.403;exitDx=0;exitDy=0;exitPerimeter=0;" edge="1" parent="1" source="5pLtMOVgpSPl1mk9mMqf-28" target="5pLtMOVgpSPl1mk9mMqf-6">
          <mxGeometry width="50" height="50" relative="1" as="geometry">
            <mxPoint x="535" y="550" as="sourcePoint" />
            <mxPoint x="620" y="378" as="targetPoint" />
          </mxGeometry>
        </mxCell>
        <mxCell id="5pLtMOVgpSPl1mk9mMqf-54" value="View" style="text;html=1;align=center;verticalAlign=middle;resizable=0;points=[];autosize=1;strokeColor=none;" vertex="1" parent="1">
          <mxGeometry x="540" y="430" width="40" height="20" as="geometry" />
        </mxCell>
        <mxCell id="5pLtMOVgpSPl1mk9mMqf-55" value="View/Add" style="text;html=1;align=center;verticalAlign=middle;resizable=0;points=[];autosize=1;strokeColor=none;" vertex="1" parent="1">
          <mxGeometry x="560" y="605" width="70" height="20" as="geometry" />
        </mxCell>
        <mxCell id="5pLtMOVgpSPl1mk9mMqf-56" value="View" style="text;html=1;align=center;verticalAlign=middle;resizable=0;points=[];autosize=1;strokeColor=none;" vertex="1" parent="1">
          <mxGeometry x="720" y="260" width="40" height="20" as="geometry" />
        </mxCell>
        <mxCell id="5pLtMOVgpSPl1mk9mMqf-57" value="1..*" style="text;html=1;align=center;verticalAlign=middle;resizable=0;points=[];autosize=1;strokeColor=none;" vertex="1" parent="1">
          <mxGeometry x="240" y="100" width="30" height="20" as="geometry" />
        </mxCell>
        <mxCell id="5pLtMOVgpSPl1mk9mMqf-58" value="0..*" style="text;html=1;align=center;verticalAlign=middle;resizable=0;points=[];autosize=1;strokeColor=none;" vertex="1" parent="1">
          <mxGeometry x="570" y="100" width="30" height="20" as="geometry" />
        </mxCell>
        <mxCell id="5pLtMOVgpSPl1mk9mMqf-59" value="1..*" style="text;html=1;align=center;verticalAlign=middle;resizable=0;points=[];autosize=1;strokeColor=none;" vertex="1" parent="1">
          <mxGeometry x="270" y="130" width="30" height="20" as="geometry" />
        </mxCell>
        <mxCell id="5pLtMOVgpSPl1mk9mMqf-60" value="0..*" style="text;html=1;align=center;verticalAlign=middle;resizable=0;points=[];autosize=1;strokeColor=none;" vertex="1" parent="1">
          <mxGeometry x="580" y="330" width="30" height="20" as="geometry" />
        </mxCell>
        <mxCell id="5pLtMOVgpSPl1mk9mMqf-61" value="0..*" style="text;html=1;align=center;verticalAlign=middle;resizable=0;points=[];autosize=1;strokeColor=none;" vertex="1" parent="1">
          <mxGeometry x="160" y="480" width="30" height="20" as="geometry" />
        </mxCell>
        <mxCell id="5pLtMOVgpSPl1mk9mMqf-62" value="1..*" style="text;html=1;align=center;verticalAlign=middle;resizable=0;points=[];autosize=1;strokeColor=none;" vertex="1" parent="1">
          <mxGeometry x="160" y="220" width="30" height="20" as="geometry" />
        </mxCell>
        <mxCell id="5pLtMOVgpSPl1mk9mMqf-63" value="1..*" style="text;html=1;align=center;verticalAlign=middle;resizable=0;points=[];autosize=1;strokeColor=none;" vertex="1" parent="1">
          <mxGeometry x="265" y="500" width="30" height="20" as="geometry" />
        </mxCell>
        <mxCell id="5pLtMOVgpSPl1mk9mMqf-64" value="1..*" style="text;html=1;align=center;verticalAlign=middle;resizable=0;points=[];autosize=1;strokeColor=none;" vertex="1" parent="1">
          <mxGeometry x="320" y="380" width="30" height="20" as="geometry" />
        </mxCell>
        <mxCell id="5pLtMOVgpSPl1mk9mMqf-65" value="1..*" style="text;html=1;align=center;verticalAlign=middle;resizable=0;points=[];autosize=1;strokeColor=none;" vertex="1" parent="1">
          <mxGeometry x="280" y="580" width="30" height="20" as="geometry" />
        </mxCell>
        <mxCell id="5pLtMOVgpSPl1mk9mMqf-66" value="1..*" style="text;html=1;align=center;verticalAlign=middle;resizable=0;points=[];autosize=1;strokeColor=none;" vertex="1" parent="1">
          <mxGeometry x="270" y="630" width="30" height="20" as="geometry" />
        </mxCell>
        <mxCell id="5pLtMOVgpSPl1mk9mMqf-67" value="0..*" style="text;html=1;align=center;verticalAlign=middle;resizable=0;points=[];autosize=1;strokeColor=none;" vertex="1" parent="1">
          <mxGeometry x="325" y="585" width="30" height="20" as="geometry" />
        </mxCell>
        <mxCell id="5pLtMOVgpSPl1mk9mMqf-68" value="0..*" style="text;html=1;align=center;verticalAlign=middle;resizable=0;points=[];autosize=1;strokeColor=none;" vertex="1" parent="1">
          <mxGeometry x="320" y="770" width="30" height="20" as="geometry" />
        </mxCell>
        <mxCell id="5pLtMOVgpSPl1mk9mMqf-69" value="0..*" style="text;html=1;align=center;verticalAlign=middle;resizable=0;points=[];autosize=1;strokeColor=none;" vertex="1" parent="1">
          <mxGeometry x="525" y="530" width="30" height="20" as="geometry" />
        </mxCell>
        <mxCell id="5pLtMOVgpSPl1mk9mMqf-70" value="0..*" style="text;html=1;align=center;verticalAlign=middle;resizable=0;points=[];autosize=1;strokeColor=none;" vertex="1" parent="1">
          <mxGeometry x="525" y="830" width="30" height="20" as="geometry" />
        </mxCell>
        <mxCell id="5pLtMOVgpSPl1mk9mMqf-71" value="0..*" style="text;html=1;align=center;verticalAlign=middle;resizable=0;points=[];autosize=1;strokeColor=none;" vertex="1" parent="1">
          <mxGeometry x="520" y="390" width="30" height="20" as="geometry" />
        </mxCell>
        <mxCell id="5pLtMOVgpSPl1mk9mMqf-72" value="0..*" style="text;html=1;align=center;verticalAlign=middle;resizable=0;points=[];autosize=1;strokeColor=none;" vertex="1" parent="1">
          <mxGeometry x="410" y="520" width="30" height="20" as="geometry" />
        </mxCell>
        <mxCell id="5pLtMOVgpSPl1mk9mMqf-74" value="1" style="text;html=1;align=center;verticalAlign=middle;resizable=0;points=[];autosize=1;strokeColor=none;" vertex="1" parent="1">
          <mxGeometry x="440" y="490" width="20" height="20" as="geometry" />
        </mxCell>
        <mxCell id="5pLtMOVgpSPl1mk9mMqf-75" value="1" style="text;html=1;align=center;verticalAlign=middle;resizable=0;points=[];autosize=1;strokeColor=none;" vertex="1" parent="1">
          <mxGeometry x="415" y="690" width="20" height="20" as="geometry" />
        </mxCell>
        <mxCell id="5pLtMOVgpSPl1mk9mMqf-77" value="0..*" style="text;html=1;align=center;verticalAlign=middle;resizable=0;points=[];autosize=1;strokeColor=none;" vertex="1" parent="1">
          <mxGeometry x="410" y="730" width="30" height="20" as="geometry" />
        </mxCell>
        <mxCell id="5pLtMOVgpSPl1mk9mMqf-79" value="0..*" style="text;html=1;align=center;verticalAlign=middle;resizable=0;points=[];autosize=1;strokeColor=none;" vertex="1" parent="1">
          <mxGeometry x="720" y="230" width="30" height="20" as="geometry" />
        </mxCell>
        <mxCell id="5pLtMOVgpSPl1mk9mMqf-80" value="0..*" style="text;html=1;align=center;verticalAlign=middle;resizable=0;points=[];autosize=1;strokeColor=none;" vertex="1" parent="1">
          <mxGeometry x="690" y="280" width="30" height="20" as="geometry" />
        </mxCell>
      </root>
    </mxGraphModel>
  </diagram>
</mxfile>
